<svg width="41" height="41" viewBox="0 0 41 41" fill="none" xmlns="http://www.w3.org/2000/svg">
<g clip-path="url(#clip0_625_10806)">
<path d="M28.1875 17.9375C28.1875 22.1912 24.7537 25.625 20.5 25.625C16.2463 25.625 12.8125 22.1912 12.8125 17.9375C12.8125 13.6838 16.2463 10.25 20.5 10.25C24.7537 10.25 28.1875 13.6838 28.1875 17.9375Z" fill="#D8D8D8"/>
<path fill-rule="evenodd" clip-rule="evenodd" d="M41 20.5C41 31.8263 31.8263 41 20.5 41C9.17375 41 0 31.8263 0 20.5C0 9.17375 9.17375 0 20.5 0C31.8263 0 41 9.17375 41 20.5ZM10.25 35.2344C10.66 34.5527 14.6319 28.1875 20.4744 28.1875C26.2913 28.1875 30.2887 34.5681 30.6987 35.2344C33.0815 33.5867 35.0284 31.3848 36.372 28.8182C37.7156 26.2516 38.4156 23.397 38.4119 20.5C38.4119 10.5831 30.3912 2.5625 20.4744 2.5625C10.5575 2.5625 2.53688 10.5831 2.53688 20.5C2.53688 26.5988 5.58625 32.0056 10.25 35.2344Z" fill="#D8D8D8"/>
</g>
<defs>
<clipPath id="clip0_625_10806">
<rect width="41" height="41" fill="white"/>
</clipPath>
</defs>
</svg>
