<svg width="20" height="20" viewBox="0 0 20 20" fill="none" xmlns="http://www.w3.org/2000/svg">
<path opacity="0.992" fill-rule="evenodd" clip-rule="evenodd" d="M0.76172 2.7934C0.866692 2.78699 0.97086 2.7935 1.07422 2.81293C1.14583 2.83246 1.19141 2.87804 1.21094 2.94965C1.21745 4.2259 1.23699 5.50192 1.26953 6.77778C1.46063 6.83258 1.65594 6.85864 1.85547 6.8559C1.84896 5.55375 1.85547 4.25168 1.875 2.94965C1.93471 2.83184 2.03237 2.77975 2.16797 2.7934C2.30357 2.77975 2.40123 2.83184 2.46094 2.94965C2.48047 4.25168 2.48698 5.55375 2.48047 6.8559C2.68 6.85864 2.87531 6.83258 3.06641 6.77778C3.09895 5.50192 3.11849 4.2259 3.125 2.94965C3.18471 2.83184 3.28237 2.77975 3.41797 2.7934C3.55357 2.77975 3.65123 2.83184 3.71094 2.94965C3.73698 4.44703 3.73698 5.94446 3.71094 7.44184C3.56265 7.88332 3.25667 8.10465 2.79297 8.1059C2.79948 10.8924 2.79297 13.6788 2.77344 16.4653C2.6638 16.7382 2.46197 16.8684 2.16797 16.8559C1.87397 16.8684 1.67214 16.7382 1.5625 16.4653C1.54297 13.6788 1.53646 10.8924 1.54297 8.1059C1.07927 8.10465 0.773286 7.88332 0.625001 7.44184C0.598958 5.94446 0.598958 4.44703 0.625001 2.94965C0.651942 2.87738 0.697517 2.82529 0.76172 2.7934Z" fill="white"/>
<path opacity="0.992" fill-rule="evenodd" clip-rule="evenodd" d="M19.2774 3.10547C19.3294 5.31887 19.3555 7.54543 19.3555 9.78516C19.349 12.0117 19.3425 14.2383 19.3359 16.4648C19.2263 16.7378 19.0245 16.868 18.7305 16.8555C18.4365 16.868 18.2347 16.7378 18.125 16.4648C18.112 14.5117 18.099 12.5586 18.0859 10.6055C18.0684 10.5266 18.0358 10.455 17.9883 10.3906C17.7911 10.3296 17.5958 10.2645 17.4024 10.1953C17.3006 10.1196 17.229 10.022 17.1875 9.90234C17.1615 8.56121 17.1615 7.22004 17.1875 5.87891C17.4137 4.59047 18.1103 3.66598 19.2774 3.10547Z" fill="white"/>
<path opacity="0.976" fill-rule="evenodd" clip-rule="evenodd" d="M9.58997 4.04324C12.4588 3.87861 14.5225 5.07652 15.7814 7.63699C16.6013 9.78742 16.3409 11.7926 15.0001 13.6526C13.2966 15.6353 11.1677 16.3189 8.61341 15.7034C6.18903 14.8846 4.77626 13.2115 4.37512 10.6839C4.1918 8.1273 5.17489 6.16765 7.32434 4.80496C8.03825 4.41293 8.79345 4.15902 9.58997 4.04324ZM10.3322 5.91824C12.1119 6.03586 13.3554 6.90824 14.0626 8.53543C14.5952 10.1023 14.3218 11.5086 13.2423 12.7542C11.9044 14.0311 10.3745 14.3371 8.65247 13.6721C6.84325 12.7298 6.06852 11.2389 6.32825 9.19949C6.88387 7.15281 8.21852 6.05906 10.3322 5.91824Z" fill="white"/>
<path opacity="0.987" fill-rule="evenodd" clip-rule="evenodd" d="M9.74497 6.54237C11.5594 6.39979 12.829 7.15499 13.5536 8.808C14.0317 10.4593 13.5955 11.8069 12.245 12.851C11.19 13.4851 10.0832 13.5892 8.92466 13.1635C7.78868 12.6391 7.10509 11.7602 6.87388 10.5267C6.7081 8.80698 7.39169 7.56347 8.92466 6.79628C9.197 6.69265 9.47044 6.608 9.74497 6.54237Z" fill="white"/>
</svg>
