<svg width="20" height="20" viewBox="0 0 20 20" fill="none" xmlns="http://www.w3.org/2000/svg">
<path d="M2.49567 5.02344C1.15583 6.30859 0.0425494 7.38281 0.0269244 7.41406C-0.0277631 7.5 0.0308307 7.64453 0.124581 7.67188C0.175362 7.68359 1.91364 7.69531 3.99567 7.69531H7.77302L8.39802 7.10156C8.74177 6.77344 9.02302 6.49609 9.01911 6.48438C9.00739 6.42188 5.08161 2.71094 5.01521 2.70312C4.95271 2.69531 4.35114 3.25 2.49567 5.02344Z" fill="white"/>
<path d="M13.4102 4.14844C12.5781 4.94531 11.6875 5.80078 11.4336 6.04688L10.9727 6.5L11.5273 7.02734C11.832 7.32031 12.0977 7.5625 12.1133 7.57031C12.1328 7.57812 12.1484 7.49219 12.1484 7.375C12.1523 7.08984 12.2578 6.86719 12.4648 6.73047C12.6289 6.62109 12.6406 6.62109 13.293 6.60938C14.0508 6.59375 14.2305 6.625 14.4102 6.8125C14.5742 6.98047 14.6484 7.18359 14.6484 7.46094V7.69531H17.2422C19.7305 7.69531 19.8398 7.69141 19.9258 7.62109C20.0039 7.55859 20.0117 7.53125 19.9805 7.45312C19.9258 7.3125 15.0898 2.69531 15 2.69531C14.957 2.69531 14.3008 3.29297 13.4102 4.14844Z" fill="white"/>
<path d="M7.85156 3.87891V4.35547L8.25391 4.74609C8.47266 4.96094 8.71875 5.19922 8.80078 5.27344L8.94531 5.40625V4.40234V3.39844H8.39844H7.85156V3.87891Z" fill="white"/>
<path d="M17.8516 3.87891V4.35547L18.2344 4.72656C18.4414 4.93359 18.6875 5.16797 18.7812 5.25391L18.9453 5.40625V4.40234V3.39844H18.3984H17.8516V3.87891Z" fill="white"/>
<path d="M9.59766 6.94141C9.39453 7.13281 8.28125 8.19922 7.11719 9.31641C5.63672 10.7344 5 11.3672 5 11.4258C5 11.4727 5.01953 11.5273 5.04688 11.5547C5.11328 11.6211 14.8867 11.6211 14.9531 11.5547C14.9805 11.5273 15 11.4688 15 11.4258C15 11.3672 14.3789 10.7461 12.8828 9.3125C10.2266 6.76563 10.0508 6.60156 10 6.60156C9.97656 6.60156 9.79688 6.75391 9.59766 6.94141Z" fill="white"/>
<path d="M12.8516 7.80078V8.30078L13.375 8.80078C13.6641 9.07422 13.9102 9.29688 13.9219 9.29688C13.9375 9.29688 13.9414 8.85156 13.9375 8.30859L13.9258 7.32422L13.3906 7.3125L12.8516 7.30078V7.80078Z" fill="white"/>
<path d="M1.0625 10.7852L1.07422 13.1719L1.20312 13.2852L1.32812 13.3984H3.33984H5.35156V12.8516V12.3047H5.14844C4.65234 12.3008 4.29687 11.9297 4.29687 11.4102C4.29687 11.0742 4.40625 10.9258 5.16797 10.1953C5.55859 9.82031 6.14062 9.26562 6.46094 8.95703L7.04297 8.39844H4.04687H1.05078L1.0625 10.7852Z" fill="white"/>
<path d="M14.6484 9.21484V10.0312L15.0859 10.4336C15.5742 10.8906 15.7031 11.0938 15.7031 11.4258C15.7031 11.6484 15.5742 11.9609 15.4258 12.0977C15.2852 12.2266 15.0664 12.3047 14.8438 12.3047H14.6484V12.8516V13.3984H16.6602H18.6719L18.7969 13.2852L18.9258 13.1719L18.9375 10.7852L18.9492 8.39844H16.7969H14.6484V9.21484Z" fill="white"/>
<path d="M6.08203 12.332C6.06641 12.3437 6.05469 13.3906 6.05469 14.6562C6.05469 17.1094 6.05859 17.1641 6.24219 17.2617C6.29297 17.2891 6.66406 17.3047 7.26172 17.3047H8.20312V16.1992C8.20312 15.5742 8.22266 14.9922 8.24609 14.8594C8.33594 14.3711 8.70703 13.8555 9.13672 13.6172C9.82422 13.2461 10.6875 13.3633 11.2344 13.9023C11.4531 14.1172 11.5586 14.2812 11.6797 14.5898C11.7695 14.8164 11.7734 14.8711 11.7891 16.0625L11.8047 17.3047H12.7578C13.7148 17.3047 13.7148 17.3047 13.8086 17.2109C13.8594 17.1602 13.9102 17.0586 13.9258 16.9883C13.9375 16.9141 13.9414 15.8359 13.9375 14.5898L13.9258 12.3242L10.0156 12.3125C7.86719 12.3086 6.09375 12.3164 6.08203 12.332Z" fill="white"/>
<path d="M9.73828 14.1367C9.54297 14.1875 9.27734 14.3594 9.16016 14.5156C8.95703 14.7812 8.94922 14.8477 8.94531 16.1211V17.3047H10H11.0547V16.1367C11.0547 14.8594 11.043 14.7734 10.8242 14.4961C10.5977 14.2109 10.0977 14.043 9.73828 14.1367Z" fill="white"/>
</svg>
