<svg width="22" height="22" viewBox="0 0 22 22" fill="none" xmlns="http://www.w3.org/2000/svg">
<path opacity="0.982" fill-rule="evenodd" clip-rule="evenodd" d="M5.82286 2.38499C7.95828 2.23104 9.4407 3.13338 10.2701 5.09202C10.6467 6.27586 10.5035 7.39304 9.84044 8.44359C9.10438 9.55222 8.30228 10.6121 7.43419 11.6233C7.15846 11.9882 6.91499 12.375 6.70372 12.7834C6.51753 12.898 6.33131 12.898 6.14512 12.7834C5.93385 12.375 5.69039 11.9882 5.41465 11.6233C4.54656 10.6121 3.74448 9.55222 3.0084 8.44359C1.95617 6.49985 2.23547 4.77397 3.8463 3.26585C4.43879 2.81792 5.09767 2.5243 5.82286 2.38499ZM6.0377 5.17796C7.27408 5.16103 7.79689 5.76259 7.60606 6.98265C7.24594 7.71759 6.66586 7.98257 5.86583 7.77757C5.01354 7.32722 4.79152 6.6612 5.19981 5.77952C5.41517 5.48472 5.69447 5.28418 6.0377 5.17796Z" fill="#E71C47"/>
<path opacity="0.937" fill-rule="evenodd" clip-rule="evenodd" d="M6.07969 5.82201C6.90804 5.78377 7.18733 6.15613 6.91758 6.93919C6.61916 7.22146 6.28258 7.2716 5.90781 7.08959C5.62555 6.79117 5.5754 6.45459 5.75742 6.07982C5.84826 5.9672 5.95568 5.88126 6.07969 5.82201Z" fill="#E71C47"/>
<path opacity="0.988" fill-rule="evenodd" clip-rule="evenodd" d="M18.4555 6.29475C18.8792 6.20236 19.1872 6.34558 19.3794 6.72443C19.408 10.119 19.408 13.5135 19.3794 16.908C19.3192 17.0542 19.2261 17.176 19.1001 17.2733C17.343 17.8948 15.5812 18.5035 13.8149 19.0994C11.8159 18.5155 9.81784 17.9283 7.82078 17.3377C6.38365 17.8665 4.94419 18.3893 3.50242 18.9061C3.16971 18.967 2.90473 18.8596 2.7075 18.5838C2.63626 15.1917 2.62194 11.7972 2.66453 8.40022C2.93406 8.85577 3.22051 9.29981 3.5239 9.73225C4.15613 10.4933 4.77202 11.2667 5.37156 12.0526C5.56505 12.3248 5.73692 12.6112 5.88719 12.9119C6.24524 13.2557 6.60335 13.2557 6.9614 12.9119C7.11167 12.6112 7.28354 12.3248 7.47703 12.0526C8.34942 10.9949 9.18018 9.9064 9.96922 8.78693C10.4292 8.09445 10.7013 7.33532 10.7856 6.50959C11.8026 6.95359 12.8195 7.39763 13.8364 7.84162C15.3812 7.32909 16.9209 6.81347 18.4555 6.29475ZM13.2563 12.3104C13.4939 12.2889 13.7231 12.3175 13.9438 12.3963C14.1293 12.6078 14.1007 12.7868 13.8579 12.9334C13.5003 12.9378 13.1494 12.9879 12.8052 13.0838C12.5131 13.0154 12.4272 12.8435 12.5473 12.5682C12.5861 12.5166 12.6362 12.4807 12.6977 12.4608C12.8876 12.4027 13.0738 12.3525 13.2563 12.3104ZM14.5884 12.5682C15.0125 12.6977 15.3777 12.9269 15.6841 13.2557C15.7932 13.4532 15.7574 13.6179 15.5766 13.7498C15.4562 13.7823 15.3416 13.768 15.2329 13.7069C15.004 13.4637 14.7391 13.2703 14.438 13.1268C14.2848 12.8882 14.3349 12.702 14.5884 12.5682ZM11.8813 12.869C12.2194 12.9009 12.3268 13.0728 12.2036 13.3846C11.949 13.5871 11.6983 13.7948 11.4516 14.0076C11.0571 14.1505 10.8924 14.0144 10.9575 13.5994C11.2611 13.3454 11.5691 13.1019 11.8813 12.869ZM6.93992 13.6854C7.03252 13.6799 7.11845 13.7014 7.19773 13.7498C7.33381 13.8859 7.46985 14.0219 7.60594 14.158C7.67163 14.4644 7.5499 14.6148 7.2407 14.6092C7.05095 14.5056 6.88625 14.3695 6.74656 14.201C6.65422 13.9703 6.71867 13.7984 6.93992 13.6854ZM16.0493 13.8572C16.1634 13.8788 16.2565 13.9361 16.3286 14.0291C16.4254 14.1798 16.5114 14.3373 16.5864 14.5018C16.6045 14.8688 16.4398 14.9905 16.0923 14.867C15.9794 14.6915 15.872 14.5125 15.77 14.3299C15.7104 14.076 15.8035 13.9185 16.0493 13.8572ZM10.4634 13.9002C10.8811 13.9916 10.9527 14.1993 10.6782 14.5233C10.3438 14.7271 9.98572 14.8417 9.60398 14.867C9.37483 14.6808 9.37483 14.4946 9.60398 14.3084C9.91001 14.2055 10.1964 14.0694 10.4634 13.9002ZM8.01414 14.3299C8.3392 14.3959 8.66864 14.4317 9.00242 14.4373C9.32636 14.6199 9.34067 14.8204 9.04539 15.0389C8.66731 15.0807 8.29494 15.052 7.9282 14.953C7.6896 14.7109 7.71821 14.5032 8.01414 14.3299Z" fill="#E71C47"/>
</svg>
