<svg width="18" height="18" viewBox="0 0 18 18" fill="none" xmlns="http://www.w3.org/2000/svg">
<path d="M3.15078 2.7002C2.79274 2.7002 2.44936 2.84243 2.19619 3.0956C1.94301 3.34878 1.80078 3.69215 1.80078 4.0502V7.6502C1.80078 8.00824 1.94301 8.35162 2.19619 8.60479C2.44936 8.85796 2.79274 9.0002 3.15078 9.0002H14.8508C15.2088 9.0002 15.5522 8.85796 15.8054 8.60479C16.0585 8.35162 16.2008 8.00824 16.2008 7.6502V4.0502C16.2008 3.69215 16.0585 3.34878 15.8054 3.0956C15.5522 2.84243 15.2088 2.7002 14.8508 2.7002H3.15078ZM3.15078 10.8002C2.79274 10.8002 2.44936 10.9424 2.19619 11.1956C1.94301 11.4488 1.80078 11.7922 1.80078 12.1502V13.9502C1.80078 14.3082 1.94301 14.6516 2.19619 14.9048C2.44936 15.158 2.79274 15.3002 3.15078 15.3002H6.75078C7.10882 15.3002 7.4522 15.158 7.70538 14.9048C7.95855 14.6516 8.10078 14.3082 8.10078 13.9502V12.1502C8.10078 11.7922 7.95855 11.4488 7.70538 11.1956C7.4522 10.9424 7.10882 10.8002 6.75078 10.8002H3.15078ZM11.2508 10.8002C10.8927 10.8002 10.5494 10.9424 10.2962 11.1956C10.043 11.4488 9.90078 11.7922 9.90078 12.1502V13.9502C9.90078 14.3082 10.043 14.6516 10.2962 14.9048C10.5494 15.158 10.8927 15.3002 11.2508 15.3002H14.8508C15.2088 15.3002 15.5522 15.158 15.8054 14.9048C16.0585 14.6516 16.2008 14.3082 16.2008 13.9502V12.1502C16.2008 11.7922 16.0585 11.4488 15.8054 11.1956C15.5522 10.9424 15.2088 10.8002 14.8508 10.8002H11.2508Z" fill="white"/>
</svg>
