<svg width="20" height="21" viewBox="0 0 20 21" fill="none" xmlns="http://www.w3.org/2000/svg">
<path d="M5.83333 10.235C5.83333 10.6771 5.65774 11.101 5.34518 11.4135C5.03262 11.7261 4.60869 11.9017 4.16667 11.9017C3.72464 11.9017 3.30072 11.7261 2.98816 11.4135C2.67559 11.101 2.5 10.6771 2.5 10.235C2.5 9.793 2.67559 9.36908 2.98816 9.05652C3.30072 8.74395 3.72464 8.56836 4.16667 8.56836C4.60869 8.56836 5.03262 8.74395 5.34518 9.05652C5.65774 9.36908 5.83333 9.793 5.83333 10.235ZM11.6667 10.235C11.6667 10.6771 11.4911 11.101 11.1785 11.4135C10.866 11.7261 10.442 11.9017 10 11.9017C9.55797 11.9017 9.13405 11.7261 8.82149 11.4135C8.50893 11.101 8.33333 10.6771 8.33333 10.235C8.33333 9.793 8.50893 9.36908 8.82149 9.05652C9.13405 8.74395 9.55797 8.56836 10 8.56836C10.442 8.56836 10.866 8.74395 11.1785 9.05652C11.4911 9.36908 11.6667 9.793 11.6667 10.235ZM17.5 10.235C17.5 10.6771 17.3244 11.101 17.0118 11.4135C16.6993 11.7261 16.2754 11.9017 15.8333 11.9017C15.3913 11.9017 14.9674 11.7261 14.6548 11.4135C14.3423 11.101 14.1667 10.6771 14.1667 10.235C14.1667 9.793 14.3423 9.36908 14.6548 9.05652C14.9674 8.74395 15.3913 8.56836 15.8333 8.56836C16.2754 8.56836 16.6993 8.74395 17.0118 9.05652C17.3244 9.36908 17.5 9.793 17.5 10.235Z" fill="white"/>
</svg>
