<svg width="15" height="15" viewBox="0 0 15 15" fill="none" xmlns="http://www.w3.org/2000/svg">
<path d="M3.32617 0.97524V1.84619H7.49945H11.6727V0.97524V0.104288H7.49945H3.32617V0.97524Z" fill="white"/>
<path d="M4.05078 8.66307V15H4.79169H5.5326L5.53865 12.0868L5.54772 9.17664L5.61727 9.10756L5.68683 9.03848H7.49828H9.30972L9.37928 9.10756L9.44883 9.17664L9.4579 12.0868L9.46395 15H10.2049H10.9458V8.66307V2.32615H7.49828H4.05078V8.66307ZM8.01238 3.73769V4.27828H8.55672H9.10106V4.84891V5.41953H8.55672H8.01238V5.96012V6.50071H7.43779H6.86321V5.96012V5.41953H6.31887H5.77453V4.84891V4.27828L6.31282 4.27228L6.84809 4.26327L6.85716 3.72868L6.86321 3.1971H7.43779H8.01238V3.73769Z" fill="white"/>
<path d="M0 9.92445V15H1.78423H3.56846V9.92445V4.84891H1.78423H0V9.92445ZM3.05436 6.93619V7.28157H2.0564H1.05844V6.93619V6.59081H2.0564H3.05436V6.93619ZM3.05436 8.91835V9.26373H2.0564H1.05844V8.91835V8.57298H2.0564H3.05436V8.91835ZM3.05436 10.9155V11.2759H2.0564H1.05844V10.9155V10.5551H2.0564H3.05436V10.9155ZM3.05436 12.9127V13.2581H2.0564H1.05844V12.9127V12.5673H2.0564H3.05436V12.9127Z" fill="white"/>
<path d="M11.4316 9.92445V15H13.2159H15.0001V9.92445V4.84891H13.2159H11.4316V9.92445ZM13.9719 6.93619V7.28157H12.9739H11.976V6.93619V6.59081H12.9739H13.9719V6.93619ZM13.9719 8.91835V9.26373H12.9739H11.976V8.91835V8.57298H12.9739H13.9719V8.91835ZM13.9719 10.9155V11.2759H12.9739H11.976V10.9155V10.5551H12.9739H13.9719V10.9155ZM13.9719 12.9127V13.2581H12.9739H11.976V12.9127V12.5673H12.9739H13.9719V12.9127Z" fill="white"/>
<path d="M6.03875 9.52502C6.02665 9.53403 6.01758 10.7714 6.01758 12.273V15H6.63752H7.25747V12.252V9.50399H6.65869C6.32906 9.50399 6.04782 9.513 6.03875 9.52502Z" fill="white"/>
<path d="M7.74219 12.252V15H8.36213H8.98208L8.97603 12.258L8.96696 9.51901L8.35608 9.51L7.74219 9.50399V12.252Z" fill="white"/>
</svg>
