<svg width="20" height="21" viewBox="0 0 20 21" fill="none" xmlns="http://www.w3.org/2000/svg">
<path d="M4.99935 15.1175L2.37435 17.7425C2.23546 17.8814 2.08268 17.9161 1.91602 17.8467C1.74935 17.7772 1.66602 17.6453 1.66602 17.4508V3.45085C1.66602 2.99251 1.82935 2.60029 2.15602 2.27418C2.48268 1.94807 2.8749 1.78474 3.33268 1.78418H16.666C17.1243 1.78418 17.5168 1.94751 17.8435 2.27418C18.1702 2.60085 18.3332 2.99307 18.3327 3.45085V13.4508C18.3327 13.9092 18.1696 14.3017 17.8435 14.6283C17.5174 14.955 17.1249 15.1181 16.666 15.1175H4.99935ZM9.99935 10.5133L11.5827 11.4717C11.7355 11.5689 11.8882 11.5656 12.041 11.4617C12.1938 11.3578 12.2493 11.2153 12.2077 11.0342L11.791 9.22168L13.2077 7.99251C13.3466 7.86751 13.3882 7.71835 13.3327 7.54501C13.2771 7.37168 13.1521 7.27779 12.9577 7.26335L11.1035 7.11751L10.3743 5.40918C10.3049 5.24251 10.1799 5.15918 9.99935 5.15918C9.81879 5.15918 9.69379 5.24251 9.62435 5.40918L8.89518 7.11751L7.04102 7.26335C6.84657 7.27723 6.72157 7.37112 6.66602 7.54501C6.61046 7.7189 6.65213 7.86807 6.79102 7.99251L8.20768 9.22168L7.79102 11.0342C7.74935 11.2147 7.8049 11.3572 7.95768 11.4617C8.11046 11.5661 8.26324 11.5695 8.41602 11.4717L9.99935 10.5133Z" fill="#E71C47"/>
</svg>
