<svg width="12" height="17" viewBox="0 0 12 17" fill="none" xmlns="http://www.w3.org/2000/svg">
<path d="M5.7352 0.762093C5.60405 1.03942 5.4893 1.27052 5.48602 1.27712C5.47947 1.29033 4.44998 1.4455 4.35818 1.4488C4.33195 1.4521 4.49916 1.63368 4.73522 1.85818L5.16144 2.26757L5.06964 2.80571C5.02046 3.10284 4.98112 3.36696 4.98112 3.39007C4.98112 3.41318 5.1975 3.31744 5.49914 3.16227L6.01388 2.89485L6.50568 3.15897C6.7778 3.30423 7.00403 3.41648 7.01058 3.40988C7.01714 3.40328 6.98108 3.14246 6.92862 2.83212L6.83354 2.26757L7.25976 1.86149C7.49582 1.63699 7.66303 1.4521 7.6368 1.4488C7.545 1.4455 6.51551 1.29033 6.50895 1.27712C6.50568 1.27052 6.39092 1.03942 6.25978 0.762093C6.12863 0.488071 6.0106 0.260269 5.99749 0.260269C5.98437 0.260269 5.86634 0.488071 5.7352 0.762093Z" fill="white"/>
<path d="M2.37975 1.01578C2.21909 1.34263 2.17319 1.41526 2.10434 1.43177C2.0191 1.44828 1.36337 1.54732 1.33059 1.54732C1.32075 1.54732 1.45517 1.68598 1.62894 1.85436L1.94697 2.16139L1.87484 2.58398C1.83549 2.81839 1.80926 3.01318 1.81582 3.02308C1.82238 3.02968 1.99942 2.94385 2.20598 2.8349L2.57974 2.63681L2.96334 2.8382C3.25514 2.99007 3.34694 3.02638 3.34694 2.98346C3.34694 2.95375 3.31743 2.75896 3.27809 2.55097L3.21252 2.1713L3.52726 1.87086C3.70103 1.70579 3.83545 1.56383 3.82562 1.55722C3.81906 1.55062 3.62562 1.51431 3.39612 1.48129C3.16661 1.44828 2.97645 1.41526 2.9699 1.40866C2.96662 1.40205 2.87482 1.22378 2.76662 1.00918L2.57646 0.619605L2.37975 1.01578Z" fill="white"/>
<path d="M9.22978 1.01944C9.05273 1.3793 9.0265 1.41562 8.9347 1.43213C8.88224 1.44203 8.6888 1.47174 8.50848 1.49816C8.33143 1.52787 8.17734 1.55428 8.17406 1.56088C8.1675 1.56749 8.30192 1.70615 8.47569 1.87122L8.79044 2.16836L8.72487 2.54803C8.68552 2.75932 8.65602 2.95411 8.65602 2.98382C8.65602 3.02344 8.7511 2.98712 9.03962 2.83856L9.42649 2.64047L9.80026 2.83525C10.0068 2.9442 10.1806 3.02674 10.1871 3.02014C10.1937 3.01353 10.1675 2.81875 10.1281 2.58434L10.056 2.15845L10.374 1.85472L10.692 1.55098L10.5838 1.53117C10.5248 1.52127 10.3314 1.49155 10.1511 1.46514C9.97402 1.44203 9.82649 1.41562 9.81993 1.40902C9.81665 1.40241 9.72485 1.22413 9.61665 1.00954L9.42649 0.619963L9.22978 1.01944Z" fill="white"/>
<path d="M0.80982 4.28833C0.475401 4.39398 0.177046 4.68781 0.0590153 5.02456C0.00655725 5.18634 0.00327863 5.51979 0 11.096V16.999H2.18029H4.36057V15.9161C4.36057 14.7177 4.38024 14.5427 4.55729 14.1895C4.84253 13.6282 5.50809 13.2551 6.13431 13.3146C6.70479 13.3674 7.1933 13.6975 7.44904 14.206C7.61625 14.5427 7.6392 14.7243 7.6392 15.9161V16.999H9.81948H11.9998V11.1125C11.9998 4.56566 12.0162 5.04437 11.7735 4.72083C11.6063 4.49303 11.4358 4.36757 11.1834 4.28833C10.9801 4.2223 10.8949 4.2223 5.98677 4.22561C1.23276 4.22561 0.990145 4.22891 0.80982 4.28833ZM3.86878 7.44125V8.64628H2.67208H1.47538V7.44125V6.23621H2.67208H3.86878V7.44125ZM7.18019 7.44125V8.64628H5.99988H4.81958V7.44125V6.23621H5.99988H7.18019V7.44125ZM10.5244 7.44125V8.64628H9.32769H8.13099V7.44125V6.23621H9.32769H10.5244V7.44125ZM3.86222 10.8154L3.86878 12.0138H2.67208H1.47538V10.8088V9.60371L2.66552 9.61032L3.85238 9.62022L3.86222 10.8154ZM7.18019 10.8088V12.0138H5.99988H4.81958V10.8088V9.60371H5.99988H7.18019V10.8088ZM10.5244 10.8088V12.0138H9.32769H8.13099V10.8319C8.13099 10.1815 8.14083 9.63673 8.15394 9.62682C8.16378 9.61362 8.70475 9.60371 9.35064 9.60371H10.5244V10.8088Z" fill="white"/>
</svg>
