<svg width="18" height="18" viewBox="0 0 18 18" fill="none" xmlns="http://www.w3.org/2000/svg">
<g clip-path="url(#clip0_1520_13830)">
<path d="M10.4161 -0.230377C9.19372 0.0380274 8.17811 0.843242 7.64491 1.96764C7.25318 2.78736 7.15887 3.67963 7.35474 4.65532C7.50345 5.39524 7.77186 5.95381 8.2978 6.63208C9.03775 7.57875 9.29165 8.05027 9.44036 8.75756C9.46575 8.89176 9.49114 9.05861 9.49114 9.12752C9.49114 9.3524 9.50565 9.36328 9.83935 9.36328C10.1041 9.36328 10.144 9.35603 10.144 9.29799C10.144 9.26535 10.0933 8.62335 10.0352 7.87617C9.97719 7.12899 9.9264 6.49062 9.9264 6.45435C9.9264 6.42171 9.85749 6.35642 9.77044 6.30564C9.01598 5.86314 8.53357 5.04704 8.48642 4.13664C8.41025 2.66404 9.53467 1.4127 11.0146 1.32202C11.8053 1.27487 12.4908 1.54327 13.082 2.14174C13.6007 2.66404 13.8546 3.27702 13.851 4.01332C13.851 4.21644 13.8256 4.48484 13.793 4.61904C13.637 5.29006 13.1727 5.93568 12.5924 6.28751C12.3602 6.42896 12.3893 6.28025 12.2841 7.89431C12.2442 8.51091 12.2043 9.09488 12.1934 9.18918L12.1716 9.36328H12.5017H12.8281V9.22545C12.8281 9.00783 12.9551 8.46376 13.0784 8.14821C13.238 7.73472 13.4556 7.37926 13.9743 6.69011C14.7505 5.66002 15.0226 4.95636 15.0661 3.86461C15.106 2.94696 14.892 2.16713 14.4023 1.4272C13.8401 0.585718 12.9406 -0.0236331 11.9467 -0.234004C11.6348 -0.299292 10.7171 -0.295665 10.4161 -0.230377Z" fill="white"/>
<path d="M10.8652 1.85565C10.3719 1.93182 9.96565 2.14945 9.61381 2.51941C8.62722 3.56039 8.92102 5.25424 10.1978 5.88535C10.8579 6.21179 11.4637 6.20816 12.1347 5.8781C12.6679 5.61332 13.0886 5.09465 13.2446 4.50343C13.3135 4.24591 13.3135 3.7091 13.2446 3.45157C12.9653 2.39972 11.9134 1.69243 10.8652 1.85565ZM11.4129 2.7189V2.893L11.587 2.94741C11.7502 2.99819 11.7575 3.00544 11.7684 3.15415C11.7756 3.23757 11.772 3.30649 11.7611 3.30649C11.7502 3.30649 11.6704 3.27022 11.587 3.22307C11.3839 3.11788 11.0792 3.11425 10.9776 3.21944C10.7709 3.42981 10.8833 3.61116 11.3621 3.83242C11.5761 3.93035 11.7212 4.02465 11.7611 4.08631C11.8554 4.22777 11.8917 4.52519 11.8336 4.66302C11.743 4.87702 11.431 5.08376 11.1916 5.08376C11.1445 5.08376 11.1263 5.13454 11.1046 5.28688C11.0792 5.48637 11.0792 5.48637 10.9667 5.47549C10.8543 5.46461 10.8543 5.46461 10.8652 5.27963L10.8724 5.09465L10.702 5.05112C10.6077 5.02573 10.5097 4.97858 10.4807 4.94593C10.4299 4.87702 10.419 4.66302 10.4626 4.634C10.4807 4.62312 10.5641 4.65214 10.6548 4.69566C10.8797 4.8081 11.2134 4.81899 11.3657 4.72468C11.431 4.68478 11.4927 4.60861 11.5072 4.55784C11.5471 4.40187 11.4347 4.29306 11.0756 4.12258C10.8906 4.03916 10.7056 3.93035 10.6657 3.8832C10.303 3.48059 10.4662 3.00544 10.9921 2.91839C11.1082 2.90025 11.1155 2.88937 11.1372 2.72253C11.1626 2.54843 11.1626 2.5448 11.2859 2.5448H11.4129V2.7189Z" fill="white"/>
<path d="M10.543 6.74815C10.543 6.82069 10.5829 7.40828 10.6336 8.05753C10.6844 8.70678 10.7243 9.26535 10.7243 9.29799C10.7243 9.35603 10.7715 9.36328 11.1777 9.36328C11.5151 9.36328 11.6311 9.3524 11.6347 9.31613C11.6347 9.29437 11.6783 8.68139 11.7327 7.95597C11.7871 7.23055 11.827 6.63208 11.8197 6.62845C11.8161 6.6212 11.7399 6.62845 11.6565 6.64659C11.4534 6.68649 10.8513 6.68649 10.6808 6.64659L10.543 6.61395V6.74815Z" fill="white"/>
<path d="M9.38281 10.5858C9.38281 10.9413 9.39732 11.2532 9.41183 11.2786C9.43722 11.3149 9.81445 11.3221 11.1819 11.3149L12.9193 11.304L12.9302 10.6221L12.9374 9.94381H11.1601H9.38281V10.5858Z" fill="white"/>
<path d="M2.30859 11.9388C2.30859 11.9606 2.19614 13.085 2.05468 14.4379C1.91685 15.7944 1.80078 16.9188 1.80078 16.9406C1.80078 16.9696 2.08007 16.9805 2.70757 16.9805H3.61437V14.4415V11.9025H2.96148C2.54435 11.9025 2.30859 11.917 2.30859 11.9388Z" fill="white"/>
<path d="M10.2193 11.982C10.3136 12.1561 10.4224 12.2758 10.5639 12.3592C10.6981 12.439 10.7525 12.4463 11.1733 12.4463C11.5033 12.4463 11.6629 12.4318 11.7355 12.3955C11.8407 12.3375 12.0692 12.1017 12.1381 11.9784L12.178 11.9022H11.1769H10.1758L10.2193 11.982Z" fill="white"/>
<path d="M4.1763 12.6352C4.16542 12.6606 4.1618 13.4912 4.16542 14.4778L4.1763 16.2732L4.73852 16.5525C5.49659 16.9297 6.4578 17.325 7.31381 17.6116C8.94966 18.152 10.0668 18.3225 10.8249 18.1411C11.6483 17.9453 12.9867 17.2851 14.5972 16.2841C15.7397 15.5768 17.829 14.1368 17.9269 13.9881C18.0901 13.7378 17.9741 13.3969 17.673 13.2482C17.517 13.1684 17.4808 13.1648 17.3466 13.201C17.2631 13.2228 16.2729 13.6689 15.1449 14.1912C13.5525 14.9312 13.0738 15.1669 12.9867 15.2649C12.9214 15.3301 12.7763 15.4281 12.6603 15.4861L12.4463 15.584L10.5057 15.5949C9.43933 15.6022 8.51077 15.5949 8.44549 15.584C8.20246 15.5405 8.09728 15.2612 8.26775 15.1016C8.34755 15.0255 8.36206 15.0255 10.3461 15.0146L12.3411 15.0037L12.4898 14.9058C12.8416 14.6736 12.8416 14.2166 12.4898 13.9555C12.3918 13.8829 12.3374 13.8793 11.1949 13.8684L10.0052 13.8575L9.85283 13.6762C9.40306 13.143 8.56518 12.7331 7.7128 12.628C7.24852 12.5735 4.19807 12.5808 4.1763 12.6352Z" fill="white"/>
</g>
<defs>
<clipPath id="clip0_1520_13830">
<rect width="18" height="18" fill="white"/>
</clipPath>
</defs>
</svg>
