<svg width="18" height="18" viewBox="0 0 18 18" fill="none" xmlns="http://www.w3.org/2000/svg">
<path d="M2.88166 0.337678C2.25939 0.471272 1.65822 0.938849 1.37345 1.5119C0.997281 2.2783 1.0465 2.86541 1.58087 3.9201C2.02384 4.79197 3.08908 6.38104 3.27892 6.44783C3.46173 6.51463 3.53908 6.44783 3.96447 5.85369C4.71681 4.79901 5.28634 3.79705 5.49728 3.16424C5.68712 2.58416 5.64845 2.06737 5.37072 1.5119C4.9172 0.608381 3.88712 0.119709 2.88166 0.337678ZM3.69728 0.896662C4.10861 0.949397 4.61837 1.32908 4.83986 1.74041C5.20197 2.42947 5.07892 2.99549 4.28791 4.30682C3.96798 4.83768 3.41252 5.66033 3.37384 5.66033C3.33517 5.66033 2.6215 4.5951 2.36134 4.14861C2.059 3.6283 1.83752 3.14666 1.76017 2.83729C1.58087 2.14119 1.95353 1.3783 2.64259 1.0408C2.8922 0.91424 3.23673 0.840412 3.44416 0.865021C3.49337 0.872053 3.60587 0.886115 3.69728 0.896662Z" fill="#E71C47"/>
<path d="M2.98125 1.31133C2.62969 1.44492 2.39766 1.64883 2.22187 1.9793C2.1375 2.14453 2.12695 2.19727 2.12695 2.53125C2.12695 2.88281 2.13047 2.91094 2.24648 3.12188C2.38359 3.375 2.55586 3.54375 2.81953 3.68086C2.98828 3.76875 3.0375 3.7793 3.375 3.7793C3.7125 3.7793 3.76172 3.76875 3.93047 3.68086C4.19414 3.54375 4.36641 3.375 4.50352 3.12188C4.61953 2.91094 4.62305 2.88281 4.62305 2.53125C4.62305 2.19375 4.6125 2.14453 4.52461 1.97578C4.38398 1.71211 4.21875 1.53984 3.96562 1.40273C3.76875 1.30078 3.70898 1.28672 3.42773 1.27617C3.22031 1.26914 3.06562 1.27969 2.98125 1.31133ZM3.59297 1.87031C3.85664 1.94766 4.07812 2.26055 4.07812 2.55234C4.07812 2.60859 4.03945 2.73516 3.99375 2.83711C3.85312 3.13945 3.50859 3.29063 3.17461 3.19922C2.57695 3.03047 2.50664 2.17617 3.06914 1.9125C3.27305 1.81758 3.38906 1.81055 3.59297 1.87031Z" fill="#E71C47"/>
<path d="M14.1317 0.900178C13.5094 1.03377 12.9082 1.50135 12.6235 2.0744C12.2473 2.8408 12.2965 3.42791 12.8309 4.4826C13.2738 5.35447 14.3391 6.94354 14.5289 7.01033C14.7117 7.07713 14.7891 7.01033 15.2145 6.41619C15.9668 5.36151 16.5363 4.35955 16.7473 3.72674C16.9371 3.14666 16.8985 2.62987 16.6207 2.0744C16.1672 1.17088 15.1371 0.682209 14.1317 0.900178ZM15.0633 1.48377C15.6785 1.63846 16.1813 2.21151 16.2727 2.8619C16.3289 3.25565 16.2305 3.58963 15.8613 4.3033C15.5555 4.89041 14.6977 6.22283 14.6238 6.22283C14.55 6.22283 13.6957 4.89744 13.3688 4.26815C13.0102 3.57908 12.9188 3.25565 12.975 2.8619C13.1121 1.87049 14.0754 1.23416 15.0633 1.48377Z" fill="#E71C47"/>
<path d="M14.1575 1.9125C13.7849 2.06719 13.5704 2.29219 13.4263 2.66836C13.37 2.82305 13.356 2.925 13.3665 3.14648C13.3876 3.6457 13.6442 4.03945 14.0942 4.25039C14.263 4.32773 14.3368 4.3418 14.6251 4.3418C14.9134 4.3418 14.9872 4.32773 15.156 4.25039C15.4337 4.12031 15.6235 3.93398 15.7571 3.66328C15.8626 3.44883 15.8732 3.39961 15.8732 3.09375C15.8732 2.80547 15.8591 2.73164 15.7817 2.56289C15.6517 2.28516 15.4653 2.09531 15.1946 1.96172C14.9942 1.86328 14.9169 1.8457 14.6603 1.83516C14.4107 1.82812 14.3298 1.83867 14.1575 1.9125ZM14.8431 2.43281C15.1068 2.51016 15.3282 2.82305 15.3282 3.11484C15.3282 3.17109 15.2896 3.29766 15.2439 3.39961C15.1032 3.70195 14.7587 3.85313 14.4247 3.76172C13.8271 3.59297 13.7568 2.73867 14.3193 2.475C14.5232 2.38008 14.6392 2.37305 14.8431 2.43281Z" fill="#E71C47"/>
<path d="M8.26516 5.64951C8.15266 5.66357 8.14915 5.67061 8.17024 5.79365C8.18079 5.86396 8.19134 5.99053 8.19134 6.0749V6.22607L8.44798 6.20146C8.58509 6.1874 8.71165 6.15928 8.72923 6.13818C8.74329 6.11709 8.75032 5.99756 8.7468 5.871L8.73626 5.64248L8.56048 5.63896C8.46555 5.63545 8.33196 5.64248 8.26516 5.64951Z" fill="#E71C47"/>
<path d="M7.1957 5.72012L7.02344 5.73418L7.04805 5.95215C7.08672 6.32832 7.07266 6.31426 7.44531 6.27207C7.62461 6.24746 7.62813 6.24395 7.62813 6.13496C7.62813 6.07168 7.61758 5.94864 7.60703 5.85723C7.58242 5.67793 7.61406 5.68848 7.1957 5.72012Z" fill="#E71C47"/>
<path d="M9.3419 5.75489C9.33135 5.79005 9.31378 5.88849 9.29971 5.97638C9.28565 6.06427 9.27159 6.15919 9.26104 6.19083C9.2505 6.23302 9.30323 6.25763 9.49659 6.30333C9.63721 6.33849 9.75323 6.35958 9.75675 6.35606C9.77081 6.33497 9.91495 5.892 9.91495 5.86388C9.91495 5.84981 9.83057 5.81466 9.73214 5.78653C9.37706 5.68458 9.35948 5.68458 9.3419 5.75489Z" fill="#E71C47"/>
<path d="M6.16289 5.89916C5.98359 5.93432 5.90625 5.96596 5.90625 6.00112C5.90625 6.05385 6.0082 6.47924 6.02578 6.4933C6.03984 6.50737 6.50742 6.40541 6.52852 6.38432C6.55312 6.36322 6.46875 5.87455 6.44063 5.86049C6.42656 5.85346 6.3 5.87104 6.16289 5.89916Z" fill="#E71C47"/>
<path d="M10.3565 6.33496C10.2827 6.46855 10.2299 6.58105 10.237 6.58809C10.2405 6.5916 10.3424 6.65488 10.4549 6.72871L10.6623 6.8623L10.7256 6.78145C10.7608 6.73574 10.8381 6.63027 10.8979 6.55293L10.9998 6.40527L10.817 6.28574C10.476 6.06074 10.5077 6.05723 10.3565 6.33496Z" fill="#E71C47"/>
<path d="M5.06238 6.19082C4.95691 6.22598 4.85144 6.26465 4.82683 6.2752C4.79519 6.28574 4.80925 6.36309 4.87254 6.54941L4.96043 6.80957L5.21355 6.73223C5.35418 6.69004 5.46668 6.64082 5.46668 6.62324C5.46668 6.52129 5.32957 6.11699 5.29441 6.12051C5.27332 6.12051 5.16785 6.15215 5.06238 6.19082Z" fill="#E71C47"/>
<path d="M11.2922 6.9608C11.2113 7.0733 11.1445 7.18228 11.1445 7.19635C11.1445 7.22799 11.482 7.43189 11.591 7.46705C11.6437 7.48463 11.6789 7.44244 11.7703 7.25963C11.8336 7.13307 11.8828 7.02408 11.8828 7.01353C11.8828 6.99947 11.4715 6.74986 11.4469 6.74986C11.4434 6.74986 11.373 6.84478 11.2922 6.9608Z" fill="#E71C47"/>
<path d="M12.3082 7.41087C12.266 7.54446 12.2344 7.67102 12.2344 7.69212C12.2344 7.71321 12.3258 7.74837 12.4383 7.76946C12.5473 7.79056 12.6738 7.81868 12.7125 7.82923C12.8109 7.85032 12.8215 7.83274 12.8496 7.53392L12.8742 7.28431L12.6703 7.24212C12.5578 7.21751 12.4453 7.1929 12.4207 7.18235C12.3961 7.17181 12.3539 7.25267 12.3082 7.41087Z" fill="#E71C47"/>
<path d="M13.5984 7.30215L13.3945 7.31621V7.60098V7.88574L13.6793 7.86465C13.834 7.8541 13.9711 7.83652 13.9816 7.82949C13.9922 7.81895 13.9852 7.69238 13.9711 7.55176C13.9359 7.26348 13.957 7.27754 13.5984 7.30215Z" fill="#E71C47"/>
<path d="M4.55288 9.61172C4.40874 9.675 4.26108 9.8543 4.23647 9.99492C4.22593 10.0582 4.22241 11.4855 4.22593 13.173C4.23647 16.2035 4.23647 16.2387 4.3103 16.3336C4.48257 16.5691 4.51069 16.5762 5.25952 16.5867C5.79038 16.5973 5.94155 16.6078 5.94155 16.643C5.94155 16.6676 5.9978 16.8012 6.0646 16.9348C6.21577 17.2371 6.42671 17.441 6.74312 17.5887C6.95757 17.6906 7.0103 17.7012 7.31265 17.7012C7.61499 17.7012 7.66772 17.6906 7.88218 17.5887C8.19858 17.441 8.40952 17.2371 8.56069 16.9348C8.62749 16.8012 8.68374 16.6676 8.68374 16.643C8.68374 16.6008 9.03882 16.5937 10.8283 16.5937C12.6177 16.5937 12.9728 16.6008 12.9728 16.643C12.9728 16.6676 13.0291 16.8012 13.0958 16.9348C13.247 17.2371 13.458 17.441 13.7744 17.5887C13.9888 17.6906 14.0416 17.7012 14.3439 17.7012C14.6462 17.7012 14.699 17.6906 14.9134 17.5887C15.2298 17.441 15.4408 17.2371 15.5919 16.9348C15.6587 16.8012 15.715 16.6676 15.715 16.643C15.715 16.6043 15.8169 16.5937 16.2107 16.5937C16.499 16.5937 16.7697 16.5762 16.8541 16.5516C17.0474 16.4953 17.3392 16.2035 17.3955 16.0102C17.4517 15.8168 17.4552 13.6195 17.399 13.4297C17.3638 13.3102 15.6693 10.8457 15.4935 10.6594C15.4513 10.6137 15.3529 10.5398 15.2755 10.5012C15.1384 10.4273 15.0892 10.4238 13.7603 10.4133L12.3822 10.4027L12.3681 10.1602C12.3541 9.9 12.3013 9.79101 12.115 9.6539C12.0201 9.58008 11.9955 9.58008 8.33921 9.57305C5.33335 9.56601 4.63726 9.57305 4.55288 9.61172ZM15.9716 12.375L16.3478 12.9375H15.0646H13.7814V12.375V11.8125H14.6884H15.599L15.9716 12.375Z" fill="#E71C47"/>
<path d="M0.5625 11.5312V11.8125H2.10938H3.65625V11.5312V11.25H2.10938H0.5625V11.5312Z" fill="#E71C47"/>
<path d="M1.125 13.2188V13.5H2.39062H3.65625V13.2188V12.9375H2.39062H1.125V13.2188Z" fill="#E71C47"/>
<path d="M1.6875 14.9062V15.1875H2.67188H3.65625V14.9062V14.625H2.67188H1.6875V14.9062Z" fill="#E71C47"/>
</svg>
