<svg width="12" height="17" viewBox="0 0 12 17" fill="none" xmlns="http://www.w3.org/2000/svg">
<path d="M5.7352 0.762094C5.60405 1.03942 5.4893 1.27052 5.48602 1.27712C5.47947 1.29033 4.44998 1.4455 4.35818 1.4488C4.33195 1.4521 4.49916 1.63368 4.73522 1.85818L5.16144 2.26757L5.06964 2.80571C5.02046 3.10284 4.98112 3.36696 4.98112 3.39007C4.98112 3.41318 5.1975 3.31744 5.49914 3.16227L6.01388 2.89485L6.50568 3.15897C6.7778 3.30423 7.00403 3.41648 7.01058 3.40988C7.01714 3.40328 6.98108 3.14246 6.92862 2.83212L6.83354 2.26757L7.25976 1.86149C7.49582 1.63699 7.66303 1.4521 7.6368 1.4488C7.545 1.4455 6.51551 1.29033 6.50895 1.27712C6.50568 1.27052 6.39092 1.03942 6.25978 0.762094C6.12863 0.488071 6.0106 0.260269 5.99749 0.260269C5.98437 0.260269 5.86634 0.488071 5.7352 0.762094Z" fill="#E71C47"/>
<path d="M2.37975 1.01676C2.21909 1.34361 2.17319 1.41624 2.10434 1.43274C2.0191 1.44925 1.36337 1.5483 1.33059 1.5483C1.32075 1.5483 1.45517 1.68696 1.62894 1.85533L1.94697 2.16237L1.87484 2.58496C1.83549 2.81937 1.80926 3.01415 1.81582 3.02406C1.82238 3.03066 1.99942 2.94482 2.20598 2.83587L2.57974 2.63778L2.96334 2.83917C3.25514 2.99104 3.34694 3.02736 3.34694 2.98444C3.34694 2.95473 3.31743 2.75994 3.27809 2.55195L3.21252 2.17228L3.52726 1.87184C3.70103 1.70677 3.83545 1.5648 3.82562 1.5582C3.81906 1.5516 3.62562 1.51528 3.39612 1.48227C3.16662 1.44925 2.97645 1.41624 2.9699 1.40963C2.96662 1.40303 2.87482 1.22475 2.76662 1.01016L2.57646 0.620581L2.37975 1.01676Z" fill="#E71C47"/>
<path d="M9.22978 1.02042C9.05273 1.38028 9.0265 1.4166 8.9347 1.4331C8.88224 1.44301 8.6888 1.47272 8.50848 1.49913C8.33143 1.52885 8.17734 1.55526 8.17406 1.56186C8.1675 1.56846 8.30192 1.70713 8.47569 1.8722L8.79044 2.16933L8.72487 2.549C8.68552 2.7603 8.65602 2.95508 8.65602 2.9848C8.65602 3.02442 8.7511 2.9881 9.03962 2.83953L9.42649 2.64144L9.80026 2.83623C10.0068 2.94518 10.1806 3.02772 10.1871 3.02111C10.1937 3.01451 10.1675 2.81972 10.1281 2.58532L10.056 2.15943L10.374 1.85569L10.692 1.55196L10.5838 1.53215C10.5248 1.52224 10.3314 1.49253 10.1511 1.46612C9.97402 1.44301 9.82649 1.4166 9.81993 1.40999C9.81665 1.40339 9.72485 1.22511 9.61665 1.01051L9.42649 0.620939L9.22978 1.02042Z" fill="#E71C47"/>
<path d="M0.80982 4.28882C0.475401 4.39447 0.177046 4.6883 0.0590153 5.02505C0.00655725 5.18682 0.00327863 5.52027 0 11.0965V16.9995H2.18029H4.36057V15.9166C4.36057 14.7182 4.38024 14.5432 4.55729 14.19C4.84253 13.6287 5.50809 13.2556 6.13431 13.3151C6.70479 13.3679 7.1933 13.698 7.44904 14.2065C7.61625 14.5432 7.6392 14.7248 7.6392 15.9166V16.9995H9.81948H11.9998V11.113C11.9998 4.56615 12.0162 5.04486 11.7735 4.72132C11.6063 4.49351 11.4358 4.36806 11.1834 4.28882C10.9801 4.22279 10.8949 4.22279 5.98677 4.22609C1.23276 4.22609 0.990145 4.2294 0.80982 4.28882ZM3.86878 7.44173V8.64677H2.67208H1.47538V7.44173V6.23669H2.67208H3.86878V7.44173ZM7.18019 7.44173V8.64677H5.99988H4.81958V7.44173V6.23669H5.99988H7.18019V7.44173ZM10.5244 7.44173V8.64677H9.32769H8.13099V7.44173V6.23669H9.32769H10.5244V7.44173ZM3.86222 10.8158L3.86878 12.0143H2.67208H1.47538V10.8092V9.6042L2.66552 9.6108L3.85238 9.62071L3.86222 10.8158ZM7.18019 10.8092V12.0143H5.99988H4.81958V10.8092V9.6042H5.99988H7.18019V10.8092ZM10.5244 10.8092V12.0143H9.32769H8.13099V10.8324C8.13099 10.182 8.14083 9.63722 8.15394 9.62731C8.16378 9.61411 8.70475 9.6042 9.35064 9.6042H10.5244V10.8092Z" fill="#E71C47"/>
</svg>
