<svg width="25" height="24" viewBox="0 0 25 24" fill="none" xmlns="http://www.w3.org/2000/svg">
<path d="M12.925 11.5C12.262 11.5 11.6261 11.2366 11.1573 10.7678C10.6884 10.2989 10.425 9.66304 10.425 9C10.425 8.33696 10.6884 7.70107 11.1573 7.23223C11.6261 6.76339 12.262 6.5 12.925 6.5C13.5881 6.5 14.224 6.76339 14.6928 7.23223C15.1617 7.70107 15.425 8.33696 15.425 9C15.425 9.3283 15.3604 9.65339 15.2347 9.95671C15.1091 10.26 14.925 10.5356 14.6928 10.7678C14.4607 10.9999 14.1851 11.1841 13.8818 11.3097C13.5784 11.4353 13.2534 11.5 12.925 11.5ZM12.925 2C11.0685 2 9.28806 2.7375 7.9753 4.05025C6.66255 5.36301 5.92505 7.14348 5.92505 9C5.92505 14.25 12.925 22 12.925 22C12.925 22 19.925 14.25 19.925 9C19.925 7.14348 19.1876 5.36301 17.8748 4.05025C16.562 2.7375 14.7816 2 12.925 2Z" fill="white"/>
</svg>
